<svg xmlns="http://www.w3.org/2000/svg" xmlns:xlink="http://www.w3.org/1999/xlink" id="Layer_4" x="0px" y="0px" viewBox="0 0 64.26 64.9" xml:space="preserve">
<g>
	<g id="access-alarms">
		<path d="M64.26,12.53L49.48,0L45.3,4.82l14.78,12.53L64.26,12.53z M18.96,5.14l-4.18-4.82L0,12.53l4.18,4.82L18.96,5.14z     M33.74,19.92h-4.82V39.2l15.1,9.32l2.57-3.86l-12.85-7.71V19.92z M32.13,7.07c-16.06,0-28.92,12.85-28.92,28.92    S16.06,64.9,32.13,64.9s28.92-12.85,28.92-28.92S48.19,7.07,32.13,7.07z M32.13,58.48c-12.53,0-22.49-9.96-22.49-22.49    c0-12.53,9.96-22.49,22.49-22.49s22.49,9.96,22.49,22.49C54.62,48.52,44.66,58.48,32.13,58.48z"></path>
	</g>
</g>
</svg>