<svg xmlns="http://www.w3.org/2000/svg" xmlns:xlink="http://www.w3.org/1999/xlink" id="Layer_6" x="0px" y="0px" viewBox="0 0 63.91 63.91" xml:space="preserve">
<polygon fill="none" points="72.9,6.98 72.9,54.98 104.88,54.98 104.88,46.99 136.83,46.99 136.83,6.98 "></polygon>
<g>
	<path d="M45.77,40.46c-0.2,0.2-0.4,0.4-0.6,0.59c-1.34,1.33-2.59,2.57-3.6,3.75C52.91,46.13,59,49.63,59,51.62   c0,2.5-9.55,7.37-27.04,7.37S4.92,54.13,4.92,51.62c0-2,6.09-5.49,17.43-6.83c-1.01-1.18-2.26-2.42-3.6-3.75   c-0.2-0.19-0.4-0.39-0.6-0.59C7.93,42.2,0,45.96,0,51.62c0,8.07,16.08,12.29,31.96,12.29s31.96-4.22,31.96-12.29   C63.91,45.96,55.98,42.2,45.77,40.46z"></path>
	<path d="M31.96,0C21.1,0,12.29,8.81,12.29,19.67c0,14.75,17.21,19.67,17.21,29.5c0,1.36,1.1,2.46,2.46,2.46   c1.36,0,2.46-1.1,2.46-2.46c0-9.83,17.21-14.75,17.21-29.5C51.62,8.81,42.82,0,31.96,0z M31.96,24.58c-2.72,0-4.92-2.2-4.92-4.92   s2.2-4.92,4.92-4.92s4.92,2.2,4.92,4.92S34.67,24.58,31.96,24.58z"></path>
</g>
</svg>