<svg xmlns="http://www.w3.org/2000/svg" xmlns:xlink="http://www.w3.org/1999/xlink" x="0px" y="0px" viewBox="0 0 426.667 426.667" style="enable-background:new 0 0 426.667 426.667;" xml:space="preserve">
<g>
	<g>
		<g>
			<path d="M405.333,85.333h-64V64c0-36.267-27.733-64-64-64h-128c-36.267,0-64,27.733-64,64v21.333h-64     C8.533,85.333,0,93.867,0,106.667v298.667c0,12.8,8.533,21.333,21.333,21.333h384c12.8,0,21.333-8.533,21.333-21.333V106.667     C426.667,93.867,418.133,85.333,405.333,85.333z M128,64c0-12.8,8.533-21.333,21.333-21.333h128     c12.8,0,21.333,8.533,21.333,21.333v21.333H128V64z M213.333,384c-70.4,0-128-57.6-128-128c0-70.4,57.6-128,128-128     s128,57.6,128,128C341.333,326.4,283.733,384,213.333,384z"></path>
			<polygon points="234.667,170.667 192,170.667 192,234.667 128,234.667 128,277.333 192,277.333 192,341.333 234.667,341.333      234.667,277.333 298.667,277.333 298.667,234.667 234.667,234.667    "></polygon>
		</g>
	</g>
</g>
</svg>