<svg xmlns="http://www.w3.org/2000/svg" xmlns:xlink="http://www.w3.org/1999/xlink" x="0px" y="0px" viewBox="0 0 42.28 40.15" xml:space="preserve">
<g>
	<path d="M37.46,11.97H5.56C2.49,11.97,0,14.46,0,17.53v14.75c0,4.35,3.52,7.87,7.87,7.87h27.9   c3.59,0,6.51-2.91,6.51-6.51V16.79C42.28,14.13,40.12,11.97,37.46,11.97z M21.14,36.34c-5.68,0-10.28-4.6-10.28-10.28   s4.6-10.28,10.28-10.28s10.28,4.6,10.28,10.28S26.81,36.34,21.14,36.34z"></path>
	<path d="M26.42,24.59h-3.82v-3.82c0-0.81-0.66-1.47-1.47-1.47s-1.47,0.66-1.47,1.47v3.82h-3.82   c-0.81,0-1.47,0.66-1.47,1.47c0,0.81,0.66,1.47,1.47,1.47h3.82v3.82c0,0.81,0.66,1.47,1.47,1.47s1.47-0.66,1.47-1.47v-3.82h3.82   c0.81,0,1.47-0.66,1.47-1.47C27.89,25.25,27.23,24.59,26.42,24.59z"></path>
	<path d="M20.43,3.5c0.68,0.03,1.36,0.04,2.03,0.03c9.62-0.16,10.71,5.32,10.71,5.32h3.52   C34.71,0.41,25.18-0.05,22.28,0c-0.58,0.01-1.16,0.02-1.74,0.01C6.7-0.16,5.58,8.85,5.58,8.85H9.1C10.99,3.65,17.84,3.4,20.43,3.5z   "></path>
</g>
</svg>