<svg xmlns="http://www.w3.org/2000/svg" xmlns:xlink="http://www.w3.org/1999/xlink" x="0px" y="0px" viewBox="0 0 39.95 40.1" xml:space="preserve">
<g>
	<path d="M10.75,9.7c0,0-2.39-2.02,0-4.27l1.64-1.68c0-0.96-0.38-1.89-1.05-2.57L10.19,0L7.4,2.98   C7.23,3.16,6.93,3.14,6.78,2.93L4.88,0.1L0,3.36l4.88,8.55C4.88,11.91,6.83,9.35,10.75,9.7z"></path>
	<path d="M25.17,7.11c-0.42,0.12-1.21,0.48-1.46,1.51c0,0,8.07-1.14,12.31,5.48c0,0-3.83-5.94,0.72-8.14l2.69-1.58   l-3.41-3.76l-4,4.1c-0.19,0.2-0.47,0.3-0.74,0.28L31.1,4.98c-0.23-0.02-0.44-0.11-0.61-0.27L25.37,0l-3.72,3.27l3.59,3.58   C25.32,6.93,25.29,7.07,25.17,7.11z"></path>
	<path d="M23.17,11.41c-5.28-0.7-7.01,3.23-7.01,3.23h-0.59c-1.34-1.84-4.37-1.58-4.37-1.58   c-8.22,0.31-8.07,9.1-8.07,9.1C2.87,33.18,13.47,35.68,13.47,35.68c-2.79-4.07-2.69-9.12-2.69-9.12c2.07-2.59,3.67,0,3.67,0   c1.24,14.59,15.6,13.47,15.6,13.47c7.21,0.62,9.89-3.17,9.89-3.17C40.25,9.44,23.17,11.41,23.17,11.41z"></path>
</g>
</svg>