<svg xmlns="http://www.w3.org/2000/svg" xmlns:xlink="http://www.w3.org/1999/xlink" x="0px" y="0px" viewBox="0 0 37.18 40.4" xml:space="preserve">
<g>
	<path d="M25.95,33.93c-0.1,0-0.1,0.05-0.1,0.12c0,1.57,0,3.13,0,4.7c0,0.72,0.48,1.35,1.16,1.57   c0.11,0.04,0.1,0.03,0.22,0.06c0.17,0,0.35,0.01,0.52,0.01c0.01,0,0.03,0,0.04,0c0.75-0.12,1.3-0.71,1.37-1.47   c0.07-0.69,0.11-1.39,0.15-2.08c0.07-1.01,0.14-2.02,0.2-3.03c0.02-0.35,0.05-0.71,0.07-1.07c-0.03,0.01-0.05,0.01-0.06,0.02   C28.45,33.51,27.27,33.91,25.95,33.93z"></path>
	<path d="M37.15,17.52c0-0.23-0.03-0.45-0.08-0.67c-0.47-2.3-2.43-3.92-4.77-3.93c-1.06,0-2.13-0.01-3.19,0   c-1.49,0.01-2.73,0.58-3.7,1.71c-0.81,0.93-1.17,2.03-1.17,3.25c0,3.14,0,6.27,0,9.41c0,0.15-0.04,0.18-0.18,0.18   c-3.19,0-6.38,0-9.56,0c-0.27,0-0.53-0.04-0.79-0.11c-1.46-0.4-2.39-1.62-2.4-3.17c-0.01-1.17,0-2.34,0-3.52   c0-0.08,0.02-0.14,0.1-0.18c0.61-0.38,1.04-0.91,1.3-1.58c0.04-0.09,0.08-0.14,0.18-0.18c2.18-0.78,3.9-2.13,5.11-4.1   c0.84-1.36,1.33-2.84,1.37-4.44c0.06-2.31,0.01-4.63,0.02-6.94c0-0.03,0-0.06,0-0.09c-0.05-0.9-0.74-1.55-1.65-1.55   c-1.07,0-2.14,0-3.21,0c-0.11,0-0.22,0.01-0.34,0.03c-0.78,0.15-1.37,0.92-1.29,1.7c0.09,0.86,0.76,1.5,1.59,1.5   c0.51,0,1.01,0,1.52,0c0.12,0,0.14,0.03,0.14,0.14c0,1.55,0,3.09,0,4.64c0,0.52-0.05,1.04-0.17,1.55   c-0.78,3.29-3.89,5.37-7.18,4.91C7.04,15.84,5.6,15,4.52,13.57c-0.76-1-1.17-2.14-1.27-3.39C3.21,9.65,3.23,9.11,3.23,8.57   c0-1.19,0-2.38,0-3.58c0-0.12,0.02-0.16,0.15-0.15c0.14,0.01,0.28,0,0.41,0c0.42,0,0.85,0.03,1.27-0.01   c0.88-0.09,1.48-0.86,1.42-1.75C6.42,2.27,5.7,1.62,4.85,1.62c-1.07,0-2.14,0-3.21,0C0.71,1.62,0,2.33,0,3.27c0,2.08,0,4.17,0,6.25   c0,0.5,0.02,1,0.09,1.5c0.19,1.38,0.65,2.66,1.4,3.83c1.23,1.92,2.91,3.25,5.06,4.01c0.08,0.03,0.14,0.07,0.17,0.16   c0.25,0.62,0.66,1.11,1.23,1.47c0.1,0.06,0.13,0.13,0.13,0.25c0,1.16,0,2.32,0,3.48c0,1,0.19,1.97,0.66,2.85   c1.24,2.35,3.19,3.61,5.86,3.64c3.74,0.03,7.47,0.01,11.21,0.01c0.46,0,0.91-0.07,1.32-0.26c1.2-0.57,1.91-1.52,1.94-2.86   c0.04-1.76,0.01-3.53,0.02-5.3c0-0.1-0.05-0.13-0.11-0.18c-1.12-0.76-1.64-1.82-1.46-3.16c0.24-1.82,1.95-3.05,3.76-2.73   c1.34,0.24,2.37,1.29,2.62,2.61c0.23,1.24-0.34,2.57-1.44,3.28c-0.09,0.06-0.13,0.12-0.13,0.23c0,1.69,0,3.39,0,5.08   c0,0.88-0.16,1.73-0.52,2.53c-0.12,0.27-0.15,0.53-0.13,0.81c0.06,0.82,0.12,1.64,0.17,2.46c0.07,1.01,0.13,2.01,0.2,3.02   c0.06,0.84,0.12,1.68,0.17,2.53c0.04,0.78,0.51,1.39,1.27,1.6c0.04,0.02,0.06,0.03,0.12,0.05c0.17,0,0.35,0,0.52,0   c0.19-0.07,0.4-0.1,0.57-0.21c0.57-0.34,0.86-0.84,0.86-1.5c0-2.16,0-4.33,0-6.49c0-0.99,0-1.97,0-2.96c0-0.12,0.03-0.15,0.15-0.16   c0.81-0.09,1.42-0.71,1.46-1.48l0.01,0l0.01,0c0-3.36,0-6.71,0-10.07C37.17,17.53,37.16,17.53,37.15,17.52z"></path>
	<path d="M30.69,9.7c2.68,0,4.86-2.17,4.86-4.84C35.55,2.18,33.37,0,30.7,0c-2.67,0-4.85,2.18-4.85,4.85   C25.86,7.53,28.03,9.7,30.69,9.7z"></path>
</g>
</svg>